<svg data-v-0dd9719b="" version="1.0" xmlns="http://www.w3.org/2000/svg" xmlns:xlink="http://www.w3.org/1999/xlink" width="100%" height="100%" viewBox="0 0 340.000000 250.000000" preserveAspectRatio="xMidYMid meet" color-interpolation-filters="sRGB" style="margin: auto;"> <rect data-v-0dd9719b="" x="0" y="0" width="100%" height="100%" fill="#fff" fill-opacity="1" class="background"></rect> <!----> <g data-v-0dd9719b="" fill="#3e3a39" class="icon-text-wrapper icon-svg-group iconsvg" transform="translate(63.14115905761719,87.36970520019531)"><g class="iconsvg-imagesvg" transform="translate(0,0)"><g><rect fill="#3e3a39" fill-opacity="0" stroke-width="2" x="0" y="0" width="60" height="75.26058979215534" class="image-rect"></rect> <svg x="0" y="0" width="60" height="75.26058979215534" filtersec="colorsb9697281824" class="image-svg-svg primary" style="overflow: visible;"><svg xmlns="http://www.w3.org/2000/svg" viewBox="0 0 39.86140823364258 50.000003814697266"><g><g><g><g><g><path d="M19.79 49.69l-1.29-3.56a.07.07 0 0 1-.06 0L.45 23.72a.07.07 0 0 1 0-.05l8.11-6-5-14.39a.07.07 0 0 1 0-.07h.06l21 2.6 7-5.16a.07.07 0 0 1 .1.07L30 6.42l6.56.84a.07.07 0 0 1 .06.06c0 .07 0 .16-8 3.8l-3.33 11.6 12.88 11.66a.07.07 0 0 1 0 .1L31 40.42l5.6 7.64a.07.07 0 0 1-.09.09l-8.16-5.53-8.51 7.06zM18.59 46l1.23 3.55 8.41-7L21 37.64zm9.87-3.43l7.81 5.29-5.37-7.35zM.84 24L18.4 45.84l-4.53-13zm13.22 9l4.46 12.81 2.36-8.19zm7 4.56l7.31 5 2.48-2.06L23.19 30zm2.21-7.67l7.68 10.48L38 34.43 25.25 22.86zM14 32.73l6.93 4.7 2.18-7.57-8.97-12.21-4.68 2.1zm-13.34-9l13.13 8.87-4.45-12.8zm13.63-6.1l8.87 12.1 2-6.94L17.72 16zm-5.64.15L1 23.37l8.3-3.69zm9.2-1.78l7.33 6.63 3.3-11.44-9.92 4.48zm-9.11 1.66l.68 2 4.64-2.08-1.82-2.48zM3.84 3.6l4.85 13.93L12.17 15zM12.35 15l1.83 2.5 3.43-1.54-3-2.67zm2.42-1.79l3 2.69L28.53 11l1.29-4.48-5.19-.65zM4.08 3.69l8.2 11.18 2.29-1.69zm-.24-.4l10.83 9.81 9.77-7.24zM30 6.55l-1.27 4.39c4.09-1.86 7-3.23 7.68-3.58zm-5.17-.78l5.07.63L31.47.81z" fill="#3e3a39"></path></g><g><circle cx=".51" cy="23.55" r=".51" fill="#3e3a39"></circle></g><g><circle cx="19.79" cy="49.49" r=".51" fill="#3e3a39"></circle></g><g><circle cx="36.46" cy="48.01" r=".51" fill="#3e3a39"></circle></g><g><circle cx="38.13" cy="34.43" r=".51" fill="#3e3a39"></circle></g><g><circle cx="3.47" cy="3.08" r=".51" fill="#3e3a39"></circle></g><g><circle cx="36.46" cy="7.28" r=".51" fill="#3e3a39"></circle></g><g><circle cx="31.59" cy=".51" r=".51" fill="#3e3a39"></circle></g><g><path fill="#3e3a39" d="M36.394 7.277l.13-.008 1.665 27.15-.13.007z"></path></g></g><g><path d="M32.4 40.6H15.66a5.17 5.17 0 0 1-3.8-1.23 5.21 5.21 0 0 1-1.21-3.78V9.23a5.32 5.32 0 0 1 1.14-3.66 3.93 3.93 0 0 1 3.05-1.3 4.05 4.05 0 0 1 3.09 1.28 5.24 5.24 0 0 1 1.17 3.68v24.15h13.3a4.45 4.45 0 0 1 3.09 1A3.41 3.41 0 0 1 36.65 37a3.34 3.34 0 0 1-1.15 2.62 4.55 4.55 0 0 1-3.1.98zM14.85 5.79a2.43 2.43 0 0 0-1.92.8 3.89 3.89 0 0 0-.75 2.64v26.36a3.81 3.81 0 0 0 .77 2.71 3.78 3.78 0 0 0 2.71.78H32.4a3.11 3.11 0 0 0 2.09-.59 1.82 1.82 0 0 0 .63-1.49 1.89 1.89 0 0 0-.65-1.49 3 3 0 0 0-2.07-.62H18.35a.76.76 0 0 1-.76-.76V9.23a3.82 3.82 0 0 0-.76-2.64 2.55 2.55 0 0 0-1.98-.8z" fill="#3e3a39"></path></g><g><path d="M35.61 37.63H18.88a5.17 5.17 0 0 1-3.8-1.23 5.21 5.21 0 0 1-1.21-3.78V6.26A5.32 5.32 0 0 1 15 2.6a3.93 3.93 0 0 1 3.05-1.3 4.05 4.05 0 0 1 3.09 1.28 5.24 5.24 0 0 1 1.17 3.68v24.15h13.3a4.45 4.45 0 0 1 3.09 1A3.41 3.41 0 0 1 39.86 34a3.34 3.34 0 0 1-1.15 2.62 4.55 4.55 0 0 1-3.1 1.01zM18.06 2.82a2.43 2.43 0 0 0-1.92.8 3.89 3.89 0 0 0-.75 2.64v26.36a3.81 3.81 0 0 0 .77 2.71 3.78 3.78 0 0 0 2.71.78h16.74a3.11 3.11 0 0 0 2.09-.59 1.83 1.83 0 0 0 .63-1.52 1.89 1.89 0 0 0-.65-1.49 3 3 0 0 0-2.07-.62H21.56a.76.76 0 0 1-.76-.76V6.26a3.82 3.82 0 0 0-.8-2.64 2.55 2.55 0 0 0-1.94-.8z" fill="#3e3a39"></path></g></g></g></g></svg></svg> <!----></g></g> <g transform="translate(67,19.075437545776367)"><g data-gra="path-name" fill-rule="" class="tp-name iconsvg-namesvg"><g transform="scale(1)"><g><path d="M12.3-33.15L12.3-33.15Q12.84-33.84 13.43-33.74L13.43-33.74Q14.79-33.35 14.6-31.93L14.6-31.93Q13.92-29.2 11.72-26.07L11.72-26.07Q10.74-24.66 11.23-23.88L11.23-23.88Q11.72-22.9 11.47-20.36L11.47-20.36Q10.99-14.06 11.28-1.32L11.28-1.32Q11.62 0.93 10.79 2.25L10.79 2.25Q9.52 4.15 8.06 2.2L8.06 2.2Q7.42 1.27 7.76-1.56L7.76-1.56Q7.96-6.35 7.76-20.12L7.76-20.12Q7.76-21.29 6.3-20.07L6.3-20.07Q4.79-18.65 2.88-19.34L2.88-19.34Q1.32-20.17 1.56-21.58L1.56-21.58Q1.76-22.22 2.54-22.85L2.54-22.85Q9.96-26.95 12.3-33.15ZM16.41-28.42L16.41-28.42Q33.94-28.47 47.41-27.93L47.41-27.93Q48.93-27.1 46.58-24.9L46.58-24.9Q45.31-23.58 43.65-23.58L43.65-23.58Q38.43-25.63 32.86-25.54L32.86-25.54Q31.64-25.54 31.45-24.02L31.45-24.02 31.35-21.19Q31.35-19.97 32.52-19.97L32.52-19.97Q36.77-20.12 40.67-19.43L40.67-19.43Q43.99-18.8 44.43-16.02L44.43-16.02Q43.75-11.72 44.82-7.81L44.82-7.81Q45.85-3.71 44.78-1.71L44.78-1.71Q44.19-0.05 42.43-0.49L42.43-0.49Q41.41-1.27 41.36-3.56L41.36-3.56 41.26-5.42Q41.16-6.79 40.92-6.45L40.92-6.45Q38.53-4.74 36.91-7.52L36.91-7.52Q36.18-8.84 35.16-7.86L35.16-7.86Q32.91-5.76 31.84-6.35L31.84-6.35Q31.4-6.59 31.45-5.22L31.45-5.22Q31.79-2.1 31.01-0.1L31.01-0.1Q30.47 0.88 29.98 0.88L29.98 0.88Q29 1.17 28.47 0.1L28.47 0.1Q27.34-2.49 27.83-6.01L27.83-6.01Q27.83-7.18 27.69-7.08L27.69-7.08Q25.15-5.32 23.78-8.25L23.78-8.25Q23.24-9.28 21.88-8.11L21.88-8.11Q19.14-5.47 17.82-6.69L17.82-6.69Q17.63-6.88 17.68-5.71L17.68-5.71Q17.97-3.08 17.53-2L17.53-2Q17.09-0.78 15.67-0.73L15.67-0.73Q13.82-1.22 13.92-2.88L13.92-2.88Q13.87-10.69 15.38-17.68L15.38-17.68Q15.63-18.95 17.82-19.58L17.82-19.58Q20.65-20.02 26.86-19.87L26.86-19.87Q27.98-19.87 27.98-21.09L27.98-21.09 27.83-24.12Q27.64-25.49 26.32-25.59L26.32-25.59Q22.12-25.54 15.82-24.32L15.82-24.32Q14.65-24.02 13.72-24.51L13.72-24.51Q12.26-25.83 13.96-27.29L13.96-27.29Q15.38-28.27 16.41-28.42ZM26.42-16.85L26.42-16.85Q22.22-16.7 19.82-16.31L19.82-16.31Q18.95-16.26 18.46-15.58L18.46-15.58Q17.43-13.09 17.58-8.45L17.58-8.45Q17.58-7.08 17.77-7.71L17.77-7.71Q18.12-8.59 19.82-10.06L19.82-10.06 20.51-10.94Q21.24-12.21 20.65-12.6L20.65-12.6Q19.04-13.43 20.56-14.65L20.56-14.65Q21.53-15.09 22.31-14.36L22.31-14.36Q25.29-12.01 27.1-9.28L27.1-9.28Q27.88-8.15 27.93-9.77L27.93-9.77 27.98-15.82Q27.98-16.89 26.42-16.85ZM39.65-16.31L39.65-16.31Q37.16-16.8 32.57-16.89L32.57-16.89Q31.35-16.89 31.35-15.72L31.35-15.72Q31.3-12.4 31.4-9.08L31.4-9.08Q31.4-7.86 32.62-9.38L32.62-9.38 33.54-10.6Q34.23-11.77 32.91-12.74L32.91-12.74Q31.49-13.87 33.25-14.75L33.25-14.75Q34.42-14.94 35.4-13.96L35.4-13.96Q38.33-11.47 40.33-8.79L40.33-8.79Q41.11-7.62 41.41-9.23L41.41-9.23Q41.46-13.62 40.38-15.87L40.38-15.87Q40.09-16.16 39.65-16.31ZM75.98-32.67L75.98-32.67Q76.32-33.98 77.64-33.69L77.64-33.69Q80.22-32.18 79.35-30.03L79.35-30.03Q78.76-29.15 80.13-29.2L80.13-29.2Q85.06-29.54 91.36-29.3L91.36-29.3Q93.07-29.39 93.02-27.69L93.02-27.69Q92.24-25.1 89.36-25.83L89.36-25.83Q88.04-26.03 87.5-25L87.5-25 86.23-22.51Q85.5-21.24 86.91-20.61L86.91-20.61Q92.58-18.02 97.07-16.75L97.07-16.75Q98.24-16.65 98.49-15.72L98.49-15.72Q98.44-15.23 97.61-14.55L97.61-14.55Q93.7-11.23 89.79-15.09L89.79-15.09Q87.4-16.94 85.01-18.41L85.01-18.41Q83.74-19.24 82.37-18.21L82.37-18.21Q78.47-15.82 73.19-14.36L73.19-14.36Q70.75-13.33 68.9-16.21L68.9-16.21Q68.6-17.53 70.26-17.87L70.26-17.87Q74.95-18.07 79.05-19.82L79.05-19.82Q80.62-20.7 79.15-21.19L79.15-21.19Q78.22-21.48 77.29-21.58L77.29-21.58Q74.76-21.68 75-23.14L75-23.14Q75.59-24.32 76.56-24.27L76.56-24.27Q78.52-24.46 81.69-23.1L81.69-23.1Q82.86-22.56 83.84-24.07L83.84-24.07 84.23-24.95Q84.57-26.07 83.06-26.03L83.06-26.03Q80.32-25.93 77.59-25.68L77.59-25.68Q76.37-25.63 75.05-24.22L75.05-24.22Q72.41-20.95 70.56-21.58L70.56-21.58Q69.38-22.66 71.19-24.27L71.19-24.27Q75.73-28.47 75.98-32.67ZM61.04-31.74L61.04-31.74Q61.72-33.64 63.18-33.2L63.18-33.2Q64.55-32.37 63.38-30.13L63.38-30.13Q62.79-28.76 61.67-27.2L61.67-27.2Q60.55-25.73 60.94-24.95L60.94-24.95Q61.43-23.97 61.13-21.39L61.13-21.39Q60.69-15.09 61.08 0.24L61.08 0.24Q60.89 2.64 59.18 2.93L59.18 2.93Q56.93 2.1 57.42-0.1L57.42-0.1Q57.71-5.47 57.47-21.39L57.47-21.39Q57.47-22.56 56.01-21.53L56.01-21.53Q54.1-20.51 52.44-22.22L52.44-22.22Q51.12-24.27 53.91-25.34L53.91-25.34Q58.74-27.69 61.04-31.74ZM64.89-25.39L64.89-25.39Q66.11-26.86 67.33-25L67.33-25Q67.63-24.37 67.72-23.58L67.72-23.58 67.43-7.37Q67.87-4.83 65.82-4.25L65.82-4.25Q64.45-4.39 64.31-6.45L64.31-6.45Q64.06-15.33 64.4-23.97L64.4-23.97Q64.45-24.8 64.89-25.39ZM81.84-14.84L81.84-14.84Q82.52-17.19 83.98-16.21L83.98-16.21Q85.11-15.48 85.11-12.6L85.11-12.6Q85.11-11.43 86.57-11.33L86.57-11.33 93.46-11.04Q95.56-11.18 96.34-10.74L96.34-10.74Q97.12-9.62 94.82-7.67L94.82-7.67Q93.36-6.35 90.92-7.57L90.92-7.57Q88.82-8.2 86.13-8.4L86.13-8.4Q85.01-8.4 85.01-7.08L85.01-7.08Q84.91-3.42 84.96 0.24L84.96 0.24 84.67 2.2Q83.94 4.1 82.28 2.88L82.28 2.88Q81.59 1.71 81.54-1.22L81.54-1.22 81.54-6.69Q81.59-8.45 80.37-8.54L80.37-8.54Q77.1-8.45 72.71-7.57L72.71-7.57Q71.53-7.32 70.75-8.06L70.75-8.06Q69.87-9.38 71.73-10.84L71.73-10.84Q72.46-11.23 73.83-11.38L73.83-11.38Q76.95-11.47 80.42-11.43L80.42-11.43Q81.59-11.43 81.69-12.89L81.69-12.89Q81.69-14.16 81.84-14.84ZM75.88-5.81L75.88-5.81Q77-6.93 78.32-6.3L78.32-6.3Q80.37-5.03 78.91-3.13L78.91-3.13Q77.15-1.27 73.1 0.78L73.1 0.78Q71.29 1.86 70.9 1.66L70.9 1.66Q69.92 0.83 71.73-0.98L71.73-0.98Q73.73-3.47 75.88-5.81ZM87.94-5.47L87.94-5.47Q89.16-7.32 91.02-5.81L91.02-5.81Q92.48-4.35 94.38-0.93L94.38-0.93Q95.31 0.88 95.17 1.12L95.17 1.12Q94.87 2 93.46 1.17L93.46 1.17Q89.7-1.46 87.94-3.32L87.94-3.32Q87.26-4.1 87.94-5.47ZM121.39-29.83L121.39-29.83Q120.8-32.91 124.12-32.86L124.12-32.86Q126.12-31.59 125.63-29.69L125.63-29.69Q124.85-26.32 124.51-23.88L124.51-23.88Q124.32-22.56 125.44-22.71L125.44-22.71Q130.91-23.63 133.11-23.73L133.11-23.73Q137.6-23.05 135.89-19.38L135.89-19.38Q134.62-17.92 133.79-15.48L133.79-15.48Q133.3-13.82 132.23-11.57L132.23-11.57Q131.25-9.03 129.35-7.62L129.35-7.62Q126.71-7.23 127.59-9.91L127.59-9.91Q130.27-15.19 131.05-17.72L131.05-17.72Q132.23-20.12 129.54-19.97L129.54-19.97Q127.73-19.97 125.15-19.53L125.15-19.53Q123.97-19.29 123.78-17.82L123.78-17.82Q123.39-12.06 123-10.01L123-10.01Q122.66-8.74 122.12-8.06L122.12-8.06Q120.51-6.35 119.68-8.89L119.68-8.89Q119.53-9.33 119.53-9.86L119.53-9.86Q119.92-13.72 120.46-17.63L120.46-17.63Q120.56-18.8 119.29-18.55L119.29-18.55Q117.53-18.26 115.72-17.82L115.72-17.82Q114.16-17.38 113.96-15.92L113.96-15.92Q113.23-9.62 114.06-6.64L114.06-6.64Q114.11-5.96 115.58-4.64L115.58-4.64Q120.65-1.61 128.91-1.51L128.91-1.51Q135.99-1.32 139.94-2.44L139.94-2.44Q143.36-3.37 145.8-5.47L145.8-5.47Q147.61-6.88 147.9-6.74L147.9-6.74Q148.29-6.4 148.24-4.93L148.24-4.93Q148-3.13 146.97-1.07L146.97-1.07Q145.56 2.73 141.02 3.03L141.02 3.03Q129.88 3.37 119.19 0.83L119.19 0.83Q116.21 0.15 113.28-1.86L113.28-1.86Q111.18-3.61 110.89-6.93L110.89-6.93Q110.3-10.79 110.55-15.38L110.55-15.38Q110.6-16.5 109.03-16.11L109.03-16.11 105.81-15.43Q104.59-15.19 103.56-16.06L103.56-16.06Q102.54-17.33 104.05-18.75L104.05-18.75Q105.62-20.12 107.62-20.12L107.62-20.12Q108.59-20.07 109.72-20.21L109.72-20.21Q110.79-20.26 110.89-21.88L110.89-21.88 111.38-27.39Q111.43-29.3 113.28-29.39L113.28-29.39Q114.21-29.3 115.19-28.17L115.19-28.17Q116.21-26.9 115.53-24.66L115.53-24.66Q115.14-23.78 114.79-22.07L114.79-22.07Q114.6-20.95 116.16-21.24L116.16-21.24Q117.82-21.58 119.63-21.78L119.63-21.78Q120.95-21.92 121.04-23.34L121.04-23.34Q121.34-26.56 121.39-29.83Z" transform="translate(-1.527999997138977, 33.75265884399414)"></path></g> <!----> <!----> <!----> <!----> <!----> <!----> <!----></g></g> <!----></g></g><defs v-gra="od"></defs></svg>